Coordinates
version=1
nRows=18
nColumns=22
inDegrees=yes

Units are S.I. units (second, meters, Newtons, ...)
If the header above contains a line with 'inDegrees', this indicates whether rotational values are in degrees (yes) or radians (no).

endheader
time	pelvis_tilt	pelvis_list	pelvis_rotation	pelvis_tx	pelvis_ty	pelvis_tz	hip_flexion_r	hip_adduction_r	hip_rotation_r	knee_angle_r	ankle_angle_r	subtalar_angle_r	hip_flexion_l	hip_adduction_l	hip_rotation_l	knee_angle_l	ankle_angle_l	subtalar_angle_l	lumbar_extension	lumbar_bending	lumbar_rotation
      1.21000000	     -1.91982689	      3.29811721	     -2.53927765	     -0.76672122	      0.89407833	     -0.30810781	     11.44186545	     -6.99395774	      2.13907052	    -36.40725474	     20.99519259	     -8.31054298	      1.41332637	      5.60971856	    -10.20658713	    -16.38591271	     19.90299398	     -7.70761104	     -9.85925842	     -5.31498403	      4.49461574
      1.22000000	     -1.88316893	      3.19081832	     -2.81448608	     -0.76516512	      0.89394439	     -0.30896336	     12.83538931	     -6.63045902	      2.93433940	    -38.90359534	     20.37302125	     -9.10280046	      1.25672449	      5.58818169	    -10.44173251	    -16.39410452	     20.03966623	     -7.80382469	    -10.12841589	     -5.22558703	      4.43442409
      1.23000000	     -1.83703320	      3.04902115	     -3.03258133	     -0.76336867	      0.89387907	     -0.30984048	     14.15002758	     -6.22825588	      3.52963797	    -41.25353704	     19.75295450	     -9.88050167	      1.04065305	      5.53226571	    -10.62225245	    -16.34428485	     20.16413042	     -7.86501377	    -10.38816833	     -5.08734135	      4.31244968
      1.24000000	     -1.77468618	      2.87937048	     -3.21318676	     -0.76132576	      0.89389117	     -0.31072514	     15.37249951	     -5.80053906	      3.95907932	    -43.41860318	     19.17520141	    -10.43780118	      0.75431212	      5.44933455	    -10.77977590	    -16.23086372	     20.24335545	     -7.88543254	    -10.64481314	     -4.90750321	      4.16126687
      1.25000000	     -1.72443980	      2.67810911	     -3.29756637	     -0.75905210	      0.89392356	     -0.31168390	     16.52155071	     -5.37988483	      4.12826037	    -45.37375191	     18.69657571	    -11.02873297	      0.46122483	      5.32544753	    -10.86394332	    -16.11374401	     20.35944423	     -7.85684711	    -10.87161938	     -4.67633769	      3.92496421
      1.26000000	     -1.64438151	      2.45583223	     -3.30587290	     -0.75654361	      0.89403466	     -0.31271243	     17.54745582	     -4.98876671	      4.07111787	    -47.08631454	     18.37678229	    -11.62735442	      0.11715058	      5.17335631	    -10.92480159	    -15.99247348	     20.47607312	     -7.76471852	    -11.11874396	     -4.40837390	      3.62734294
      1.27000000	     -1.56373276	      2.18936225	     -3.26577726	     -0.75380231	      0.89420837	     -0.31376081	     18.47753735	     -4.58417732	      3.85964162	    -48.52660690	     18.14995734	    -11.95094623	     -0.28039804	      4.97753388	    -10.90360472	    -15.80302494	     20.57287613	     -7.65787455	    -11.34536090	     -4.07781168	      3.30883086
      1.28000000	     -1.47570893	      1.91555926	     -3.17237907	     -0.75091329	      0.89441184	     -0.31483693	     19.32765478	     -4.21413689	      3.50599789	    -49.71711009	     18.04987847	    -12.21768700	     -0.68619501	      4.76449945	    -10.86160494	    -15.62982731	     20.66168196	     -7.52706326	    -11.57596683	     -3.73061370	      2.95559879
      1.29000000	     -1.38100447	      1.64425980	     -3.06871075	     -0.74787568	      0.89463821	     -0.31588433	     20.11805948	     -3.88030228	      3.05787645	    -50.67150905	     17.97087017	    -12.36597809	     -1.12201994	      4.55228980	    -10.81289334	    -15.42961614	     20.74175847	     -7.43938794	    -11.80287624	     -3.38538975	      2.62692716
      1.30000000	     -1.32356144	      1.32741029	     -2.89597338	     -0.74469546	      0.89483772	     -0.31698319	     20.85656322	     -3.54515622	      2.47007991	    -51.34425308	     17.99937915	    -12.52773886	     -1.51732722	      4.28099149	    -10.68532376	    -15.24773278	     20.80637729	     -7.31995388	    -11.97797068	     -2.97064894	      2.25394318
      1.31000000	     -1.26373837	      1.01251742	     -2.71675111	     -0.74137974	      0.89503352	     -0.31805164	     21.53606434	     -3.24181476	      1.82567601	    -51.77876889	     18.05674240	    -12.68894355	     -1.92371810	      4.00770410	    -10.54968670	    -15.06540705	     20.85752060	     -7.20248293	    -12.14654764	     -2.55736761	      1.89170710
      1.32000000	     -1.21143693	      0.69139788	     -2.52620639	     -0.73794492	      0.89520559	     -0.31909253	     22.16648508	     -2.95850234	      1.13088709	    -51.97826877	     18.11547433	    -12.83302916	     -2.32575947	      3.72350715	    -10.38878182	    -14.88908512	     20.90123549	     -7.10592438	    -12.30032397	     -2.13612621	      1.55567969
      1.33000000	     -1.13906369	      0.37746506	     -2.32127822	     -0.73437372	      0.89537527	     -0.32010805	     22.71723265	     -2.71069133	      0.39312644	    -51.95358918	     18.17694213	    -13.01709039	     -2.74806006	      3.44094224	    -10.23021987	    -14.72905966	     20.97633093	     -6.99474139	    -12.47119166	     -1.72081708	      1.19060026
      1.34000000	     -1.08587626	      0.05221439	     -2.12263591	     -0.73067972	      0.89548463	     -0.32105293	     23.23409167	     -2.45833303	     -0.35522514	    -51.71277796	     18.22270483	    -13.15927714	     -3.14571750	      3.14135286	    -10.05232459	    -14.59147688	     21.03814298	     -6.91296131	    -12.61212632	     -1.29854837	      0.89025451
      1.35000000	     -1.03028185	     -0.27570737	     -1.92509497	     -0.72685705	      0.89555445	     -0.32192387	     23.69222434	     -2.20575740	     -1.10370566	    -51.26587559	     18.25632258	    -13.27173805	     -3.53786893	      2.83224285	     -9.87095133	    -14.48258964	     21.11942159	     -6.83353855	    -12.74989205	     -0.87792384	      0.61267429
      1.36000000	     -0.97942007	     -0.60892274	     -1.74099681	     -0.72291830	      0.89555618	     -0.32269066	     24.11098409	     -1.93663950	     -1.82856776	    -50.63781095	     18.28053052	    -13.34226181	     -3.91704788	      2.51134117	     -9.69240637	    -14.40388757	     21.20869530	     -6.75651289	    -12.87865497	     -0.46108202	      0.37330495
      1.37000000	     -0.90614919	     -0.93549931	     -1.55611561	     -0.71884851	      0.89554491	     -0.32340734	     24.44049196	     -1.67841521	     -2.55635569	    -49.80540484	     18.28159469	    -13.38329480	     -4.31109026	      2.19272206	     -9.52672793	    -14.35512140	     21.34255357	     -6.65351678	    -13.03013786	     -0.05460335	      0.16480844
      1.38000000	     -0.84803568	     -1.26332635	     -1.39512502	     -0.71468560	      0.89544010	     -0.32396687	     24.74957392	     -1.39051210	     -3.24114094	    -48.81880364	     18.27006107	    -13.35844377	     -4.67910351	      1.86338322	     -9.37119039	    -14.33947797	     21.47720656	     -6.56083339	    -13.16162919	      0.33343712	     -0.00064630
